<svg xmlns="http://www.w3.org/2000/svg" width="320" height="320" viewBox="0 0 320 320" role="img" aria-label="EdgeMint Logo – Falcon & Globe">
  <!-- Globe outer circle -->
  <path d="M160 40a120 120 0 1 0 .01 0" fill="none" stroke="#FF6B00" stroke-width="8" stroke-linecap="round" stroke-linejoin="round"/>
  <!-- Longitudes -->
  <path d="M110 53C90 90 80 125 80 160s10 70 30 107" fill="none" stroke="#FF6B00" stroke-width="8" stroke-linecap="round" stroke-linejoin="round"/>
  <path d="M210 53c20 37 30 72 30 107s-10 70-30 107" fill="none" stroke="#FF6B00" stroke-width="8" stroke-linecap="round" stroke-linejoin="round"/>
  <!-- Latitudes -->
  <path d="M60 120c50-25 150-25 200 0" fill="none" stroke="#FF6B00" stroke-width="8" stroke-linecap="round" stroke-linejoin="round"/>
  <path d="M60 200c50 25 150 25 200 0" fill="none" stroke="#FF6B00" stroke-width="8" stroke-linecap="round" stroke-linejoin="round"/>
  <!-- Diagonals / pole line -->
  <path d="M70 95L250 225" fill="none" stroke="#FF6B00" stroke-width="8" stroke-linecap="round" stroke-linejoin="round"/>
  <path d="M70 225L250 95" fill="none" stroke="#FF6B00" stroke-width="8" stroke-linecap="round" stroke-linejoin="round"/>
  <path d="M160 40V280" fill="none" stroke="#FF6B00" stroke-width="8" stroke-linecap="round" stroke-linejoin="round"/>
  <!-- Falcon silhouette -->
  <path d="M178 92c27-6 52 2 66 18 8 9 10 19 8 28-19-11-32-11-44-6-20 8-32 26-38 44-5 15-5 29 0 44-18-6-33-15-40-28-8-16-2-36 14-52 10-10 21-17 34-22Z" fill="#00FF85"/>
  <!-- Eye notch (cut) -->
  <path d="M193 130c-6-1-12 0-17 5 5 0 11 1 17 4 3-2 3-7 0-9Z" fill="#121212"/>
</svg>